<svg xmlns="http://www.w3.org/2000/svg" viewBox="0 0 100 100">
  <defs>
    <linearGradient id="bookGradient" x1="0%" y1="0%" x2="100%" y2="100%">
      <stop offset="0%" style="stop-color:#1e40af;stop-opacity:1" />
      <stop offset="100%" style="stop-color:#3b82f6;stop-opacity:1" />
    </linearGradient>
    <linearGradient id="crossGradient" x1="0%" y1="0%" x2="100%" y2="100%">
      <stop offset="0%" style="stop-color:#fbbf24;stop-opacity:1" />
      <stop offset="100%" style="stop-color:#f59e0b;stop-opacity:1" />
    </linearGradient>
  </defs>
  
  <!-- Book shadow -->
  <rect x="22" y="17" width="56" height="68" rx="3" fill="#1e3a8a" opacity="0.3"/>
  
  <!-- Book cover -->
  <rect x="20" y="15" width="56" height="68" rx="3" fill="url(#bookGradient)" stroke="#1e40af" stroke-width="2"/>
  
  <!-- Book spine highlight -->
  <rect x="20" y="15" width="10" height="68" rx="2" fill="#1e3a8a" opacity="0.4"/>
  
  <!-- Pages -->
  <rect x="25" y="18" width="46" height="62" rx="2" fill="#f8fafc"/>
  
  <!-- Cross on cover -->}
  <rect x="43" y="30" width="5" height="24" rx="1" fill="url(#crossGradient)"/>
  <rect x="35" y="39" width="24" height="5" rx="1" fill="url(#crossGradient)"/>
  
  <!-- Page lines -->
  <line x1="30" y1="32" x2="66" y2="32" stroke="#cbd5e1" stroke-width="1"/>
  <line x1="30" y1="38" x2="66" y2="38" stroke="#cbd5e1" stroke-width="1"/>
  <line x1="30" y1="58" x2="66" y2="58" stroke="#cbd5e1" stroke-width="1"/>
  <line x1="30" y1="64" x2="62" y2="64" stroke="#cbd5e1" stroke-width="1"/>
  <line x1="30" y1="70" x2="66" y2="70" stroke="#cbd5e1" stroke-width="1"/>
  
  <!-- Bookmark ribbon -->
  <path d="M 48 15 L 48 42 L 52 38 L 56 42 L 56 15 Z" fill="#dc2626" opacity="0.8"/>
</svg>
